/* XPM */
static char *eviacam_small[] = {
"128 128 3 1",
" 	c None",
".	c #808080",
"+	c #7F7F7F",
"                                                                                                                                ",
"                                                        ...................                                                     ",
"                                                  ...............................                                               ",
"                                              .......................................                                           ",
"                                           .............................................                                        ",
"                                         .................................................                                      ",
"                                       .....................................................                                    ",
"                                    ...........................................................                                 ",
"                                   ..........................         ..........................                                ",
"                                 ......................                     ......................                              ",
"                               ....................                             ....................                            ",
"                              ..................                                   ..................                           ",
"                            ..................                                       ..................                         ",
"                           .................                                           .................                        ",
"                          ...............                                                 ...............                       ",
"                         ...............                                                   ...............                      ",
"                       ...............                                                       ...............                    ",
"                      ..............                                                           ..............                   ",
"                     ..............                                                             ..............                  ",
"                    .............                                                                 .............                 ",
"                   .............                                                                   .............                ",
"                  .............                                                                     .............               ",
"                  ............                                                                       ............               ",
"                 ...........                                                                           ...........              ",
"                ...........                                                                             ...........             ",
"               ...........                                                                               ...........            ",
"              ...........                                                                                 ...........           ",
"              ...........                                                                                 ...........           ",
"             ...........                                                                                   ...........          ",
"            ...........                                                                                     ...........         ",
"            ..........                                                                                       ..........         ",
"           ..........                                                                                         ..........        ",
"           ..........                                                                                         ..........        ",
"          ..........                                                                                           ..........       ",
"         ..........                                                                                             ..........      ",
"         ..........                                                                                             ..........      ",
"         .........                                                                                               .........      ",
"        ..........                                                                                               ..........     ",
"        .........                                                                                                 .........     ",
"       .........                                                                                                   .........    ",
"       .........                                                                                                   .........    ",
"      ..........    .............+.++..+.                          +.......                             ........   ..........   ",
"      .........     ........................+.                      .......                             +......     .........   ",
"      .........     ...........................+                    .......                             .......     .........   ",
"     .........      .............................+                  +.......                           +.......      .........  ",
"     .........      ................................                 ......+                           +......       .........  ",
"     ........       ................................+                +......                           .......        ........  ",
"     ........       .......             .+.............              +.......                         +.......        ........  ",
"    .........       .......                 +...........              .......                         +......         ......... ",
"    ........        .......                   ..........              .......                         ......+          ........ ",
"    ........        .......                     +........             +.......                       +.......          ........ ",
"    ........        .......                      +........             .......                       .......           ........ ",
"    ........        .......                       .........            +.......                     .......+           ........ ",
"    .......         .......                        +......+             .......                     +......             ....... ",
"   ........         .......                         +.......            +......                     ......+             ........",
"   ........         .......                          ......+            ........                   .......+             ........",
"   ........         .......                          .......             ......+                   +......              ........",
"   ........         .......                           ......+            +......                   .......              ........",
"   ........         .......                           +.....+            ........                 .......+              ........",
"   .......          .......                           .......             .......                 .......                .......",
"   .......          .......                           +......             +......                 .......                .......",
"   .......          .......                            ......+            .......+               .......+                .......",
"   .......          .......                            .......             ......+               .......                 .......",
"   .......          .......                            ......+             .......               ......+                 .......",
"   .......          .......                            .......             .......+             .......                  .......",
"   .......          .......                            ......+              ......+             .......                  .......",
"   .......          .......                            .......              +......             .......                  .......",
"   .......          .......                            ......+               ......+           .......                   .......",
"   ........         .......                            ......+               +......           .......                  ........",
"   ........         .......                            ......+               +......+         +.......                  ........",
"   ........         .......                            .......                .......         .......                   ........",
"   ........         .......                           .......                 .......         .......                   ........",
"   ........         .......                           .......                 +......+       +.......                   ........",
"    .......         .......                           .......                  ......+       .......                    ....... ",
"    ........        .......                           ......+                  .......       ......+                   ........ ",
"    ........        .......                          +......                   +......+     +.......                   ........ ",
"    ........        .......                          .......                    .......     +......                    ........ ",
"    ........        .......                         +......                     .......     ......+                    ........ ",
"    .........       .......                        .......+                      .......   +......                    ......... ",
"     ........       .......                       +.......                       ......+   .......                    ........  ",
"     ........       .......                      +.......+                       .......   ......+                    ........  ",
"     .........      .......                     +.......+                         ....... +......                    .........  ",
"     .........      .......                   ..........                          +...... .......                    .........  ",
"      .........     .......                 ..........+                           .......+......+                   .........   ",
"      .........     .......             +.+...........                             .............                    .........   ",
"      ..........    .................................                              .............                   ..........   ",
"       .........    ................................                               ............+                   .........    ",
"       .........    ..............................                                  ...........                    .........    ",
"        .........   ...........................+                                    +..........                   .........     ",
"        ..........  .......................+++                                       .........                   ..........     ",
"         .........  .............+.++..+.                                            +.......+                   .........      ",
"         ..........                                                                                             ..........      ",
"         ..........                                                                                             ..........      ",
"          ..........                                                                                           ..........       ",
"           ..........                                                                                         ..........        ",
"           ..........                                                                                         ..........        ",
"            ..........                                                                                       ..........         ",
"            ...........                                                                                     ...........         ",
"             ...........                                                                                   ...........          ",
"              ...........                                                                                 ...........           ",
"              ...........                                                                                 ...........           ",
"               ...........                                                                               ...........            ",
"                ...........                                                                             ...........             ",
"                 ...........                                                                           ...........              ",
"                  ............                                                                       ............               ",
"                  .............                                                                     .............               ",
"                   .............                                                                   .............                ",
"                    .............                                                                 .............                 ",
"                     ..............                                                             ..............                  ",
"                      ..............                                                           ..............                   ",
"                       ...............                                                       ...............                    ",
"                         ...............                                                   ...............                      ",
"                          ...............                                                 ...............                       ",
"                           .................                                           .................                        ",
"                            ..................                                       ..................                         ",
"                              ..................                                   ..................                           ",
"                               ....................                             ....................                            ",
"                                 ......................                     ......................                              ",
"                                   ..........................         ..........................                                ",
"                                    ...........................................................                                 ",
"                                       .....................................................                                    ",
"                                         .................................................                                      ",
"                                           .............................................                                        ",
"                                              .......................................                                           ",
"                                                  ...............................                                               ",
"                                                        ...................                                                     ",
"                                                                                                                                ",
"                                                                                                                                "};
